<svg width="102" height="29" viewBox="0 0 102 29" fill="none" xmlns="http://www.w3.org/2000/svg">
<path d="M92.8241 12.9881V4.13079H94.6272V7.93143H94.4632C94.4632 7.02885 94.5835 6.27851 94.8239 5.68041C95.0643 5.07143 95.4194 4.6147 95.8893 4.31022C96.3701 4.00573 96.9657 3.85349 97.676 3.85349H97.7743C98.8343 3.85349 99.6375 4.19603 100.184 4.88113C100.73 5.55535 101.003 6.56668 101.003 7.91512V12.9881H98.725V7.71938C98.725 7.17565 98.5666 6.73524 98.2497 6.39813C97.9437 6.06102 97.5175 5.89246 96.9711 5.89246C96.4138 5.89246 95.9603 6.06645 95.6106 6.41444C95.2719 6.75155 95.1025 7.20828 95.1025 7.78463V12.9881H92.8241Z" fill="white"/>
<path d="M87.9198 12.9881V4.13079H90.1982V12.9881H87.9198ZM86.6741 5.82721V4.13079H90.1982V5.82721H86.6741ZM88.7558 3.07052C88.3078 3.07052 87.9745 2.95634 87.7559 2.72797C87.5483 2.48873 87.4445 2.18968 87.4445 1.83082C87.4445 1.47196 87.5483 1.17835 87.7559 0.949985C87.9745 0.72162 88.3078 0.607437 88.7558 0.607437C89.2038 0.607437 89.5317 0.72162 89.7393 0.949985C89.9469 1.17835 90.0507 1.47196 90.0507 1.83082C90.0507 2.18968 89.9469 2.48873 89.7393 2.72797C89.5317 2.95634 89.2038 3.07052 88.7558 3.07052Z" fill="white"/>
<path d="M79.7206 13.2817C79.0977 13.2817 78.524 13.1675 77.9995 12.9392C77.4749 12.7108 77.0214 12.39 76.639 11.9768C76.2565 11.5635 75.9614 11.0851 75.7538 10.5413C75.5462 9.98672 75.4424 9.38863 75.4424 8.74703V8.40448C75.4424 7.77376 75.5407 7.1811 75.7374 6.62649C75.9451 6.07189 76.2292 5.58798 76.5898 5.17474C76.9613 4.76151 77.4039 4.44071 77.9175 4.21235C78.442 3.97311 79.0212 3.85349 79.655 3.85349C80.3544 3.85349 80.9663 4.00573 81.4908 4.31022C82.0263 4.60383 82.4525 5.04969 82.7694 5.64779C83.0863 6.24589 83.2611 6.99623 83.2939 7.89881L82.6218 7.11585V1.08048H84.9003V12.9881H83.0972V9.22007H83.4906C83.4578 10.1227 83.272 10.8784 82.9333 11.4874C82.5945 12.0855 82.1465 12.5368 81.5892 12.8413C81.0428 13.1349 80.4199 13.2817 79.7206 13.2817ZM80.2287 11.3732C80.6767 11.3732 81.0865 11.2754 81.4581 11.0796C81.8296 10.873 82.1246 10.5794 82.3432 10.1988C82.5727 9.80729 82.6874 9.35056 82.6874 8.82859V8.17612C82.6874 7.65414 82.5727 7.21916 82.3432 6.87117C82.1137 6.51231 81.8132 6.24045 81.4417 6.05558C81.0701 5.85984 80.6658 5.76197 80.2287 5.76197C79.7369 5.76197 79.2998 5.88159 78.9174 6.12083C78.5458 6.34919 78.2508 6.67543 78.0322 7.09954C77.8246 7.52364 77.7208 8.01844 77.7208 8.58391C77.7208 9.14939 77.8301 9.64418 78.0486 10.0683C78.2672 10.4815 78.5622 10.8023 78.9338 11.0307C79.3162 11.259 79.7479 11.3732 80.2287 11.3732Z" fill="white"/>
<path d="M69.8509 13.298C69.086 13.298 68.4139 13.1675 67.8348 12.9065C67.2665 12.6455 66.7912 12.2976 66.4087 11.8626C66.0372 11.4167 65.7531 10.9219 65.5564 10.3782C65.3706 9.83448 65.2777 9.27988 65.2777 8.7144V8.40448C65.2777 7.81725 65.3706 7.25178 65.5564 6.70805C65.7531 6.15345 66.0372 5.6641 66.4087 5.23999C66.7912 4.80501 67.2611 4.46246 67.8184 4.21235C68.3757 3.95136 69.0204 3.82086 69.7526 3.82086C70.7142 3.82086 71.5174 4.03292 72.1621 4.45702C72.8178 4.87025 73.3095 5.41942 73.6374 6.10451C73.9652 6.77873 74.1291 7.50733 74.1291 8.29029V9.10589H66.2448V7.71938H72.703L71.9982 8.40448C71.9982 7.839 71.9163 7.35509 71.7523 6.95273C71.5884 6.55037 71.3371 6.24045 70.9983 6.02295C70.6705 5.80546 70.2553 5.69672 69.7526 5.69672C69.2499 5.69672 68.8237 5.8109 68.474 6.03927C68.1244 6.26763 67.8566 6.5993 67.6709 7.03429C67.496 7.45839 67.4086 7.9695 67.4086 8.56759C67.4086 9.1222 67.496 9.61699 67.6709 10.052C67.8457 10.4761 68.1134 10.8132 68.474 11.0633C68.8347 11.3025 69.2936 11.4222 69.8509 11.4222C70.4082 11.4222 70.8617 11.3134 71.2114 11.0959C71.5611 10.8676 71.7851 10.5903 71.8835 10.264H73.9816C73.8504 10.873 73.5991 11.4058 73.2276 11.8626C72.856 12.3193 72.3807 12.6727 71.8015 12.9228C71.2333 13.173 70.5831 13.298 69.8509 13.298Z" fill="white"/>
<path d="M62.725 13.1023C61.9054 13.1023 61.2279 12.999 60.6925 12.7924C60.1679 12.5749 59.7746 12.216 59.5123 11.7158C59.25 11.2047 59.1189 10.5196 59.1189 9.66049L59.1353 1.63509H61.2662L61.2498 9.8073C61.2498 10.2423 61.3645 10.5794 61.594 10.8186C61.8344 11.047 62.1732 11.1612 62.6103 11.1612H64.0035V13.1023H62.725ZM57.7092 5.7946V4.13079H64.0035V5.7946H57.7092Z" fill="white"/>
<path d="M51.8295 12.9881V4.13079H53.6325V7.88251H53.5834C53.5834 6.61019 53.8565 5.64779 54.4029 4.99532C54.9493 4.34285 55.7525 4.01661 56.8125 4.01661H57.1403V5.99034H56.5174C55.7525 5.99034 55.1569 6.19695 54.7308 6.61019C54.3155 7.01254 54.1079 7.59977 54.1079 8.37186V12.9881H51.8295Z" fill="white"/>
<path d="M45.6479 13.298C44.883 13.298 44.2109 13.1675 43.6318 12.9065C43.0635 12.6455 42.5882 12.2976 42.2057 11.8626C41.8342 11.4167 41.5501 10.9219 41.3534 10.3782C41.1676 9.83448 41.0747 9.27988 41.0747 8.7144V8.40448C41.0747 7.81725 41.1676 7.25178 41.3534 6.70805C41.5501 6.15345 41.8342 5.6641 42.2057 5.23999C42.5882 4.80501 43.0581 4.46246 43.6154 4.21235C44.1727 3.95136 44.8174 3.82086 45.5496 3.82086C46.5112 3.82086 47.3144 4.03292 47.9591 4.45702C48.6148 4.87025 49.1065 5.41942 49.4344 6.10451C49.7622 6.77873 49.9261 7.50733 49.9261 8.29029V9.10589H42.0418V7.71938H48.5L47.7952 8.40448C47.7952 7.839 47.7133 7.35509 47.5493 6.95273C47.3854 6.55037 47.1341 6.24045 46.7953 6.02295C46.4675 5.80546 46.0522 5.69672 45.5496 5.69672C45.0469 5.69672 44.6207 5.8109 44.271 6.03927C43.9214 6.26763 43.6536 6.5993 43.4679 7.03429C43.293 7.45839 43.2056 7.9695 43.2056 8.56759C43.2056 9.1222 43.293 9.61699 43.4679 10.052C43.6427 10.4761 43.9104 10.8132 44.271 11.0633C44.6317 11.3025 45.0906 11.4222 45.6479 11.4222C46.2052 11.4222 46.6587 11.3134 47.0084 11.0959C47.3581 10.8676 47.5821 10.5903 47.6805 10.264H49.7786C49.6474 10.873 49.3961 11.4058 49.0246 11.8626C48.653 12.3193 48.1777 12.6727 47.5985 12.9228C47.0303 13.173 46.3801 13.298 45.6479 13.298Z" fill="white"/>
<path d="M34.0712 12.9881L31.2847 4.13079H33.6286L36.3005 12.9881H34.0712ZM34.7433 12.9881V11.1286H37.1528V12.9881H34.7433ZM35.6448 12.9881L37.9396 4.13079H40.1361L37.7265 12.9881H35.6448Z" fill="white"/>
<path d="M21.7197 12.9881V4.13079H23.5228V7.93143H23.3589C23.3589 7.02885 23.4791 6.27851 23.7195 5.68041C23.9599 5.07143 24.315 4.6147 24.7849 4.31022C25.2657 4.00573 25.8613 3.85349 26.5716 3.85349H26.67C27.7299 3.85349 28.5331 4.19603 29.0795 4.88113C29.6259 5.55535 29.8991 6.56668 29.8991 7.91512V12.9881H27.6207V7.71938C27.6207 7.17565 27.4622 6.73524 27.1453 6.39813C26.8393 6.06102 26.4132 5.89246 25.8668 5.89246C25.3095 5.89246 24.856 6.06645 24.5063 6.41444C24.1675 6.75155 23.9981 7.20828 23.9981 7.78463V12.9881H21.7197Z" fill="white"/>
<path d="M14.8728 13.298C14.086 13.298 13.3921 13.173 12.7911 12.9228C12.19 12.6727 11.6819 12.3356 11.2667 11.9115C10.8514 11.4765 10.5345 10.9872 10.316 10.4435C10.1083 9.89973 10.0045 9.33425 10.0045 8.74703V8.40448C10.0045 7.7955 10.1138 7.21915 10.3323 6.67543C10.5618 6.12083 10.8842 5.63147 11.2994 5.20736C11.7256 4.77238 12.2392 4.43527 12.8402 4.19603C13.4413 3.94592 14.1188 3.82086 14.8728 3.82086C15.6268 3.82086 16.3043 3.94592 16.9053 4.19603C17.5063 4.43527 18.0145 4.77238 18.4297 5.20736C18.8559 5.63147 19.1783 6.12083 19.3968 6.67543C19.6154 7.21915 19.7247 7.7955 19.7247 8.40448V8.74703C19.7247 9.33425 19.6154 9.89973 19.3968 10.4435C19.1892 10.9872 18.8778 11.4765 18.4625 11.9115C18.0473 12.3356 17.5391 12.6727 16.9381 12.9228C16.3371 13.173 15.6486 13.298 14.8728 13.298ZM14.8728 11.3569C15.4301 11.3569 15.9 11.2373 16.2824 10.9981C16.6649 10.7479 16.9545 10.4163 17.1512 10.003C17.3479 9.57893 17.4462 9.10045 17.4462 8.56759C17.4462 8.02387 17.3424 7.54539 17.1348 7.13216C16.9381 6.70805 16.6431 6.37638 16.2497 6.13714C15.8672 5.88702 15.4082 5.76197 14.8728 5.76197C14.3373 5.76197 13.8729 5.88702 13.4795 6.13714C13.097 6.37638 12.802 6.70805 12.5944 7.13216C12.3867 7.54539 12.2829 8.02387 12.2829 8.56759C12.2829 9.10045 12.3813 9.57893 12.578 10.003C12.7856 10.4163 13.0806 10.7479 13.4631 10.9981C13.8456 11.2373 14.3155 11.3569 14.8728 11.3569Z" fill="white"/>
<path d="M4.54044 13.298C3.76457 13.298 3.09252 13.1675 2.52429 12.9065C1.96698 12.6455 1.49709 12.2976 1.11462 11.8626C0.74308 11.4276 0.464425 10.9382 0.278655 10.3945C0.092885 9.85079 0 9.29619 0 8.73071V8.42079C0 7.82269 0.092885 7.25178 0.278655 6.70805C0.475352 6.15345 0.764935 5.6641 1.1474 5.23999C1.52987 4.80501 1.99976 4.46246 2.55707 4.21235C3.12531 3.95136 3.78096 3.82086 4.52404 3.82086C5.29991 3.82086 5.99381 3.97311 6.60576 4.27759C7.21771 4.5712 7.70399 4.98444 8.0646 5.51729C8.43614 6.05014 8.64377 6.66999 8.68748 7.37683H6.47463C6.41999 6.9201 6.22329 6.53949 5.88454 6.23501C5.55671 5.93052 5.10321 5.77828 4.52404 5.77828C4.02137 5.77828 3.60066 5.8979 3.2619 6.13714C2.93407 6.37638 2.6882 6.70805 2.52429 7.13216C2.36037 7.54539 2.27841 8.02387 2.27841 8.56759C2.27841 9.08957 2.35491 9.56261 2.50789 9.98672C2.67181 10.4108 2.91768 10.7425 3.24551 10.9817C3.58427 11.221 4.01591 11.3406 4.54044 11.3406C4.93383 11.3406 5.27259 11.2699 5.55671 11.1285C5.84083 10.9872 6.06484 10.7914 6.22876 10.5413C6.4036 10.2912 6.51288 10.0085 6.55659 9.69311H8.76943C8.72572 10.4108 8.51264 11.0416 8.13017 11.5853C7.75863 12.1181 7.26142 12.5368 6.63854 12.8413C6.0266 13.1458 5.32723 13.298 4.54044 13.298Z" fill="white"/>
<path d="M96.9407 28.5027V21.5825H99.5484C100.083 21.5825 100.531 21.6816 100.893 21.8799C101.257 22.0781 101.533 22.3507 101.718 22.6976C101.906 23.0422 102 23.4342 102 23.8735C102 24.3173 101.906 24.7115 101.718 25.0561C101.53 25.4008 101.253 25.6722 100.886 25.8705C100.52 26.0664 100.068 26.1644 99.5314 26.1644H97.8031V25.1338H99.3617C99.674 25.1338 99.9298 25.0798 100.129 24.9716C100.328 24.8635 100.475 24.7148 100.57 24.5256C100.668 24.3364 100.716 24.119 100.716 23.8735C100.716 23.6279 100.668 23.4117 100.57 23.2247C100.475 23.0377 100.327 22.8924 100.126 22.7888C99.9264 22.6829 99.6695 22.63 99.3549 22.63H98.2004V28.5027H96.9407Z" fill="white"/>
<path d="M91.2558 25.0426C91.2558 25.7882 91.1154 26.4269 90.8347 26.9585C90.5563 27.4879 90.176 27.8933 89.6939 28.1749C89.214 28.4565 88.6696 28.5973 88.0606 28.5973C87.4517 28.5973 86.9062 28.4565 86.424 28.1749C85.9441 27.8911 85.5638 27.4845 85.2831 26.9551C85.0047 26.4235 84.8655 25.786 84.8655 25.0426C84.8655 24.297 85.0047 23.6595 85.2831 23.1301C85.5638 22.5985 85.9441 22.1919 86.424 21.9103C86.9062 21.6287 87.4517 21.4879 88.0606 21.4879C88.6696 21.4879 89.214 21.6287 89.6939 21.9103C90.176 22.1919 90.5563 22.5985 90.8347 23.1301C91.1154 23.6595 91.2558 24.297 91.2558 25.0426ZM89.9893 25.0426C89.9893 24.5177 89.9066 24.0751 89.7414 23.7147C89.5784 23.352 89.352 23.0783 89.0623 22.8936C88.7726 22.7066 88.4387 22.6131 88.0606 22.6131C87.6826 22.6131 87.3487 22.7066 87.059 22.8936C86.7692 23.0783 86.5417 23.352 86.3765 23.7147C86.2135 24.0751 86.132 24.5177 86.132 25.0426C86.132 25.5675 86.2135 26.0112 86.3765 26.3739C86.5417 26.7343 86.7692 27.008 87.059 27.195C87.3487 27.3797 87.6826 27.4721 88.0606 27.4721C88.4387 27.4721 88.7726 27.3797 89.0623 27.195C89.352 27.008 89.5784 26.7343 89.7414 26.3739C89.9066 26.0112 89.9893 25.5675 89.9893 25.0426Z" fill="white"/>
<path d="M73.4327 28.5027V21.5825H74.6925V24.5121H77.9148V21.5825H79.1779V28.5027H77.9148V25.563H74.6925V28.5027H73.4327Z" fill="white"/>
<path d="M66.5085 23.4849C66.4768 23.1898 66.3432 22.96 66.1078 22.7956C65.8746 22.6311 65.5713 22.5489 65.1978 22.5489C64.9352 22.5489 64.71 22.5883 64.5221 22.6672C64.3342 22.746 64.1905 22.853 64.0909 22.9882C63.9913 23.1233 63.9404 23.2776 63.9381 23.4511C63.9381 23.5953 63.9709 23.7203 64.0366 23.8262C64.1045 23.932 64.1961 24.0222 64.3116 24.0965C64.427 24.1686 64.5549 24.2294 64.6953 24.279C64.8356 24.3285 64.9771 24.3702 65.1197 24.404L65.7717 24.5662C66.0342 24.627 66.2866 24.7092 66.5288 24.8128C66.7733 24.9165 66.9918 25.0471 67.1842 25.2048C67.3788 25.3625 67.5328 25.5528 67.646 25.7758C67.7591 25.9989 67.8157 26.2602 67.8157 26.5598C67.8157 26.9652 67.7116 27.3223 67.5033 27.6309C67.2951 27.9373 66.994 28.1772 66.6001 28.3506C66.2085 28.5218 65.7343 28.6074 65.1774 28.6074C64.6364 28.6074 64.1667 28.5241 63.7683 28.3574C63.3722 28.1907 63.0621 27.9474 62.838 27.6275C62.6161 27.3077 62.4961 26.9179 62.478 26.4584H63.7174C63.7355 26.6994 63.8102 26.8999 63.9415 27.0599C64.0728 27.2198 64.2437 27.3392 64.4542 27.418C64.667 27.4969 64.9047 27.5363 65.1673 27.5363C65.4412 27.5363 65.6811 27.4957 65.8871 27.4147C66.0954 27.3313 66.2583 27.2164 66.376 27.07C66.4938 26.9213 66.5537 26.7479 66.556 26.5496C66.5537 26.3694 66.5005 26.2207 66.3964 26.1036C66.2923 25.9842 66.1463 25.8851 65.9584 25.8063C65.7728 25.7252 65.5555 25.6531 65.3065 25.59L64.5153 25.3873C63.9426 25.2408 63.4899 25.019 63.1571 24.7216C62.8266 24.422 62.6614 24.0244 62.6614 23.5288C62.6614 23.1211 62.7723 22.764 62.9941 22.4577C63.2182 22.1513 63.5227 21.9137 63.9075 21.7447C64.2923 21.5735 64.7281 21.4879 65.2148 21.4879C65.7083 21.4879 66.1406 21.5735 66.5119 21.7447C66.8854 21.9137 67.1785 22.1491 67.3913 22.4509C67.6041 22.7505 67.7139 23.0952 67.7207 23.4849H66.5085Z" fill="white"/>
<path d="M56.1649 28.577C55.9589 28.577 55.7823 28.5049 55.6352 28.3608C55.4881 28.2166 55.4156 28.0409 55.4179 27.8337C55.4156 27.6309 55.4881 27.4575 55.6352 27.3133C55.7823 27.1691 55.9589 27.097 56.1649 27.097C56.3641 27.097 56.5373 27.1691 56.6844 27.3133C56.8338 27.4575 56.9096 27.6309 56.9119 27.8337C56.9096 27.9711 56.8734 28.0961 56.8033 28.2087C56.7353 28.3214 56.6448 28.4115 56.5316 28.479C56.4207 28.5444 56.2985 28.577 56.1649 28.577Z" fill="white"/>
<path d="M45.16 28.5027V21.5825H49.6828V22.6334H46.4198V24.5121H49.4485V25.563H46.4198V27.4518H49.71V28.5027H45.16Z" fill="white"/>
<path d="M34.4473 28.5027V21.5825H37.055C37.5892 21.5825 38.0374 21.6749 38.3996 21.8596C38.7641 22.0443 39.0391 22.3034 39.2247 22.6368C39.4126 22.9679 39.5065 23.3542 39.5065 23.7958C39.5065 24.2395 39.4115 24.6247 39.2213 24.9514C39.0334 25.2758 38.7561 25.5269 38.3894 25.7049C38.0227 25.8806 37.5722 25.9684 37.038 25.9684H35.1807V24.9277H36.8682C37.1806 24.9277 37.4364 24.8849 37.6356 24.7993C37.8348 24.7115 37.982 24.5842 38.077 24.4175C38.1744 24.2485 38.223 24.0413 38.223 23.7958C38.223 23.5502 38.1744 23.3407 38.077 23.1673C37.9797 22.9916 37.8314 22.8587 37.6322 22.7685C37.433 22.6762 37.1761 22.63 36.8615 22.63H35.707V28.5027H34.4473ZM38.0397 25.367L39.7612 28.5027H38.3555L36.6645 25.367H38.0397Z" fill="white"/>
<path d="M28.7623 25.0426C28.7623 25.7882 28.6219 26.4269 28.3412 26.9585C28.0628 27.4879 27.6825 27.8933 27.2003 28.1749C26.7204 28.4565 26.176 28.5973 25.5671 28.5973C24.9582 28.5973 24.4126 28.4565 23.9305 28.1749C23.4506 27.8911 23.0703 27.4845 22.7896 26.9551C22.5112 26.4235 22.3719 25.786 22.3719 25.0426C22.3719 24.297 22.5112 23.6595 22.7896 23.1301C23.0703 22.5985 23.4506 22.1919 23.9305 21.9103C24.4126 21.6287 24.9582 21.4879 25.5671 21.4879C26.176 21.4879 26.7204 21.6287 27.2003 21.9103C27.6825 22.1919 28.0628 22.5985 28.3412 23.1301C28.6219 23.6595 28.7623 24.297 28.7623 25.0426ZM27.4957 25.0426C27.4957 24.5177 27.4131 24.0751 27.2479 23.7147C27.0849 23.352 26.8585 23.0783 26.5688 22.8936C26.279 22.7066 25.9451 22.6131 25.5671 22.6131C25.1891 22.6131 24.8552 22.7066 24.5654 22.8936C24.2757 23.0783 24.0482 23.352 23.8829 23.7147C23.72 24.0751 23.6385 24.5177 23.6385 25.0426C23.6385 25.5675 23.72 26.0112 23.8829 26.3739C24.0482 26.7343 24.2757 27.008 24.5654 27.195C24.8552 27.3797 25.1891 27.4721 25.5671 27.4721C25.9451 27.4721 26.279 27.3797 26.5688 27.195C26.8585 27.008 27.0849 26.7343 27.2479 26.3739C27.4131 26.0112 27.4957 25.5675 27.4957 25.0426Z" fill="white"/>
<path d="M11.7449 22.6334V21.5825H17.2931V22.6334H15.1438V28.5027H13.8942V22.6334H11.7449Z" fill="white"/>
<path d="M5.12614 23.4849C5.09445 23.1898 4.9609 22.96 4.72548 22.7956C4.49232 22.6311 4.18899 22.5489 3.81549 22.5489C3.5529 22.5489 3.32767 22.5883 3.13979 22.6672C2.9519 22.746 2.80816 22.853 2.70856 22.9882C2.60896 23.1233 2.55803 23.2776 2.55576 23.4511C2.55576 23.5953 2.58859 23.7203 2.65423 23.8262C2.72214 23.932 2.81382 24.0222 2.92927 24.0965C3.04471 24.1686 3.17261 24.2294 3.31296 24.279C3.4533 24.3285 3.59478 24.3702 3.73739 24.404L4.38932 24.5662C4.65191 24.627 4.90431 24.7092 5.14652 24.8128C5.39099 24.9165 5.60944 25.0471 5.80185 25.2048C5.99652 25.3625 6.15045 25.5528 6.26363 25.7758C6.37682 25.9989 6.43341 26.2602 6.43341 26.5598C6.43341 26.9652 6.32928 27.3223 6.12102 27.6309C5.91277 27.9373 5.6117 28.1772 5.21782 28.3506C4.82621 28.5218 4.35197 28.6074 3.79511 28.6074C3.2541 28.6074 2.78439 28.5241 2.38599 28.3574C1.98985 28.1907 1.67973 27.9474 1.45562 27.6275C1.23379 27.3077 1.11381 26.9179 1.0957 26.4584H2.33506C2.35316 26.6994 2.42787 26.8999 2.55916 27.0599C2.69045 27.2198 2.86136 27.3392 3.07188 27.418C3.28466 27.4969 3.52234 27.5363 3.78493 27.5363C4.05883 27.5363 4.29878 27.4957 4.50477 27.4147C4.71303 27.3313 4.87601 27.2164 4.99372 27.07C5.11143 26.9213 5.17142 26.7479 5.17368 26.5496C5.17142 26.3694 5.11822 26.2207 5.01409 26.1036C4.90997 25.9842 4.76396 25.8851 4.57608 25.8063C4.39046 25.7252 4.17315 25.6531 3.92414 25.59L3.13299 25.3873C2.56029 25.2408 2.10756 25.019 1.7748 24.7216C1.44431 24.422 1.27906 24.0244 1.27906 23.5288C1.27906 23.1211 1.38998 22.764 1.61182 22.4577C1.83592 22.1513 2.14038 21.9137 2.5252 21.7447C2.91002 21.5735 3.34578 21.4879 3.83246 21.4879C4.32594 21.4879 4.7583 21.5735 5.12954 21.7447C5.50304 21.9137 5.79619 22.1491 6.00897 22.4509C6.22176 22.7505 6.33154 23.0952 6.33833 23.4849H5.12614Z" fill="white"/>
</svg>
